<?xml version="1.0" encoding="UTF-8"?>
<!--Generator: Apple Native CoreSVG 123-->
<!DOCTYPE svg
PUBLIC "-//W3C//DTD SVG 1.1//EN"
       "http://www.w3.org/Graphics/SVG/1.1/DTD/svg11.dtd">
<svg version="1.1" xmlns="http://www.w3.org/2000/svg" xmlns:xlink="http://www.w3.org/1999/xlink" width="3300" height="2200">
 <!--glyph: "uni100363.medium", point size: 100.000000, font version: "Version 15.0d7e11", template writer version: "5"-->
 <g id="Notes">
  <rect height="2200" id="artboard" style="fill:white;opacity:1" width="3300" x="0" y="0"/>
  <line id="" style="fill:none;stroke:black;opacity:1;stroke-width:0.5;" x1="263" x2="3036" y1="292" y2="292"/>
  <text style="stroke:none;fill:black;font-family:-apple-system,&quot;SF Pro Display&quot;,&quot;SF Pro Text&quot;,Helvetica,sans-serif;font-weight:bold;" transform="matrix(1 0 0 1 263 322)">Weight/Scale Variations</text>
  <text style="stroke:none;fill:black;font-family:-apple-system,&quot;SF Pro Display&quot;,&quot;SF Pro Text&quot;,Helvetica,sans-serif;text-anchor:middle;" transform="matrix(1 0 0 1 559.711 322)">Ultralight</text>
  <text style="stroke:none;fill:black;font-family:-apple-system,&quot;SF Pro Display&quot;,&quot;SF Pro Text&quot;,Helvetica,sans-serif;text-anchor:middle;" transform="matrix(1 0 0 1 856.422 322)">Thin</text>
  <text style="stroke:none;fill:black;font-family:-apple-system,&quot;SF Pro Display&quot;,&quot;SF Pro Text&quot;,Helvetica,sans-serif;text-anchor:middle;" transform="matrix(1 0 0 1 1153.13 322)">Light</text>
  <text style="stroke:none;fill:black;font-family:-apple-system,&quot;SF Pro Display&quot;,&quot;SF Pro Text&quot;,Helvetica,sans-serif;text-anchor:middle;" transform="matrix(1 0 0 1 1449.84 322)">Regular</text>
  <text style="stroke:none;fill:black;font-family:-apple-system,&quot;SF Pro Display&quot;,&quot;SF Pro Text&quot;,Helvetica,sans-serif;text-anchor:middle;" transform="matrix(1 0 0 1 1746.56 322)">Medium</text>
  <text style="stroke:none;fill:black;font-family:-apple-system,&quot;SF Pro Display&quot;,&quot;SF Pro Text&quot;,Helvetica,sans-serif;text-anchor:middle;" transform="matrix(1 0 0 1 2043.27 322)">Semibold</text>
  <text style="stroke:none;fill:black;font-family:-apple-system,&quot;SF Pro Display&quot;,&quot;SF Pro Text&quot;,Helvetica,sans-serif;text-anchor:middle;" transform="matrix(1 0 0 1 2339.98 322)">Bold</text>
  <text style="stroke:none;fill:black;font-family:-apple-system,&quot;SF Pro Display&quot;,&quot;SF Pro Text&quot;,Helvetica,sans-serif;text-anchor:middle;" transform="matrix(1 0 0 1 2636.69 322)">Heavy</text>
  <text style="stroke:none;fill:black;font-family:-apple-system,&quot;SF Pro Display&quot;,&quot;SF Pro Text&quot;,Helvetica,sans-serif;text-anchor:middle;" transform="matrix(1 0 0 1 2933.4 322)">Black</text>
  <line id="" style="fill:none;stroke:black;opacity:1;stroke-width:0.5;" x1="263" x2="3036" y1="1903" y2="1903"/>
  <g id="" transform="matrix(1 0 0 1 263 1933)">
   <path d="M 9.24805 0.830078 C 13.5547 0.830078 17.1387 -2.74414 17.1387 -7.05078 C 17.1387 -11.3574 13.5449 -14.9316 9.23828 -14.9316 C 4.94141 -14.9316 1.36719 -11.3574 1.36719 -7.05078 C 1.36719 -2.74414 4.95117 0.830078 9.24805 0.830078 Z M 9.24805 -0.654297 C 5.70312 -0.654297 2.87109 -3.49609 2.87109 -7.05078 C 2.87109 -10.6055 5.69336 -13.4473 9.23828 -13.4473 C 12.793 -13.4473 15.6348 -10.6055 15.6445 -7.05078 C 15.6543 -3.49609 12.8027 -0.654297 9.24805 -0.654297 Z M 9.22852 -3.42773 C 9.69727 -3.42773 9.9707 -3.74023 9.9707 -4.25781 L 9.9707 -6.31836 L 12.1973 -6.31836 C 12.6953 -6.31836 13.0371 -6.57227 13.0371 -7.04102 C 13.0371 -7.51953 12.7148 -7.7832 12.1973 -7.7832 L 9.9707 -7.7832 L 9.9707 -10.0098 C 9.9707 -10.5273 9.69727 -10.8496 9.22852 -10.8496 C 8.75977 -10.8496 8.50586 -10.5078 8.50586 -10.0098 L 8.50586 -7.7832 L 6.29883 -7.7832 C 5.78125 -7.7832 5.44922 -7.51953 5.44922 -7.04102 C 5.44922 -6.57227 5.80078 -6.31836 6.29883 -6.31836 L 8.50586 -6.31836 L 8.50586 -4.25781 C 8.50586 -3.75977 8.75977 -3.42773 9.22852 -3.42773 Z"/>
  </g>
  <g id="" transform="matrix(1 0 0 1 281.506 1933)">
   <path d="M 11.709 2.91016 C 17.1582 2.91016 21.6699 -1.60156 21.6699 -7.05078 C 21.6699 -12.4902 17.1484 -17.0117 11.6992 -17.0117 C 6.25977 -17.0117 1.74805 -12.4902 1.74805 -7.05078 C 1.74805 -1.60156 6.26953 2.91016 11.709 2.91016 Z M 11.709 1.25 C 7.09961 1.25 3.41797 -2.44141 3.41797 -7.05078 C 3.41797 -11.6504 7.08984 -15.3516 11.6992 -15.3516 C 16.3086 -15.3516 20 -11.6504 20.0098 -7.05078 C 20.0195 -2.44141 16.3184 1.25 11.709 1.25 Z M 11.6895 -2.41211 C 12.207 -2.41211 12.5195 -2.77344 12.5195 -3.33984 L 12.5195 -6.23047 L 15.5762 -6.23047 C 16.123 -6.23047 16.5039 -6.51367 16.5039 -7.03125 C 16.5039 -7.55859 16.1426 -7.86133 15.5762 -7.86133 L 12.5195 -7.86133 L 12.5195 -10.9277 C 12.5195 -11.5039 12.207 -11.8555 11.6895 -11.8555 C 11.1719 -11.8555 10.8789 -11.4844 10.8789 -10.9277 L 10.8789 -7.86133 L 7.83203 -7.86133 C 7.26562 -7.86133 6.89453 -7.55859 6.89453 -7.03125 C 6.89453 -6.51367 7.28516 -6.23047 7.83203 -6.23047 L 10.8789 -6.23047 L 10.8789 -3.33984 C 10.8789 -2.79297 11.1719 -2.41211 11.6895 -2.41211 Z"/>
  </g>
  <g id="" transform="matrix(1 0 0 1 304.924 1933)">
   <path d="M 14.9707 5.67383 C 21.9336 5.67383 27.6953 -0.078125 27.6953 -7.04102 C 27.6953 -14.0039 21.9238 -19.7559 14.9609 -19.7559 C 8.00781 -19.7559 2.25586 -14.0039 2.25586 -7.04102 C 2.25586 -0.078125 8.01758 5.67383 14.9707 5.67383 Z M 14.9707 3.85742 C 8.93555 3.85742 4.08203 -1.00586 4.08203 -7.04102 C 4.08203 -13.0762 8.92578 -17.9395 14.9609 -17.9395 C 21.0059 -17.9395 25.8594 -13.0762 25.8691 -7.04102 C 25.8789 -1.00586 21.0156 3.85742 14.9707 3.85742 Z M 14.9512 -1.06445 C 15.5176 -1.06445 15.8691 -1.45508 15.8691 -2.06055 L 15.8691 -6.13281 L 20.1074 -6.13281 C 20.6934 -6.13281 21.1133 -6.46484 21.1133 -7.02148 C 21.1133 -7.59766 20.7227 -7.93945 20.1074 -7.93945 L 15.8691 -7.93945 L 15.8691 -12.1875 C 15.8691 -12.8027 15.5176 -13.1934 14.9512 -13.1934 C 14.3848 -13.1934 14.0625 -12.7832 14.0625 -12.1875 L 14.0625 -7.93945 L 9.83398 -7.93945 C 9.21875 -7.93945 8.80859 -7.59766 8.80859 -7.02148 C 8.80859 -6.46484 9.23828 -6.13281 9.83398 -6.13281 L 14.0625 -6.13281 L 14.0625 -2.06055 C 14.0625 -1.47461 14.3848 -1.06445 14.9512 -1.06445 Z"/>
  </g>
  <text style="stroke:none;fill:black;font-family:-apple-system,&quot;SF Pro Display&quot;,&quot;SF Pro Text&quot;,Helvetica,sans-serif;font-weight:bold;" transform="matrix(1 0 0 1 263 1953)">Design Variations</text>
  <text style="stroke:none;fill:black;font-family:-apple-system,&quot;SF Pro Display&quot;,&quot;SF Pro Text&quot;,Helvetica,sans-serif;" transform="matrix(1 0 0 1 263 1971)">Symbols are supported in up to nine weights and three scales.</text>
  <text style="stroke:none;fill:black;font-family:-apple-system,&quot;SF Pro Display&quot;,&quot;SF Pro Text&quot;,Helvetica,sans-serif;" transform="matrix(1 0 0 1 263 1989)">For optimal layout with text and other symbols, vertically align</text>
  <text style="stroke:none;fill:black;font-family:-apple-system,&quot;SF Pro Display&quot;,&quot;SF Pro Text&quot;,Helvetica,sans-serif;" transform="matrix(1 0 0 1 263 2007)">symbols with the adjacent text.</text>
  <rect height="14" id="" style="fill:#00AEEF;stroke:none;opacity:0.4;" width="3" x="776" y="1919"/>
  <g id="" transform="matrix(1 0 0 1 779 1933)">
   <path d="M 10.5273 0 L 12.373 0 L 7.17773 -14.0918 L 5.43945 -14.0918 L 0.244141 0 L 2.08984 0 L 3.50586 -4.0332 L 9.11133 -4.0332 Z M 6.2793 -11.9531 L 6.33789 -11.9531 L 8.59375 -5.52734 L 4.02344 -5.52734 Z"/>
  </g>
  <rect height="14" id="" style="fill:#00AEEF;stroke:none;opacity:0.4;" width="3" x="791.617" y="1919"/>
  <text style="stroke:none;fill:black;font-family:-apple-system,&quot;SF Pro Display&quot;,&quot;SF Pro Text&quot;,Helvetica,sans-serif;font-weight:bold;" transform="matrix(1 0 0 1 776 1953)">Margins</text>
  <text style="stroke:none;fill:black;font-family:-apple-system,&quot;SF Pro Display&quot;,&quot;SF Pro Text&quot;,Helvetica,sans-serif;" transform="matrix(1 0 0 1 776 1971)">Leading and trailing margins on the left and right side of each symbol</text>
  <text style="stroke:none;fill:black;font-family:-apple-system,&quot;SF Pro Display&quot;,&quot;SF Pro Text&quot;,Helvetica,sans-serif;" transform="matrix(1 0 0 1 776 1989)">can be adjusted by modifying the width of the blue rectangles.</text>
  <text style="stroke:none;fill:black;font-family:-apple-system,&quot;SF Pro Display&quot;,&quot;SF Pro Text&quot;,Helvetica,sans-serif;" transform="matrix(1 0 0 1 776 2007)">Modifications are automatically applied proportionally to all</text>
  <text style="stroke:none;fill:black;font-family:-apple-system,&quot;SF Pro Display&quot;,&quot;SF Pro Text&quot;,Helvetica,sans-serif;" transform="matrix(1 0 0 1 776 2025)">scales and weights.</text>
  <g id="" transform="matrix(1 0 0 1 1289 1933)">
   <path d="M 2.83203 3.11523 L 4.375 4.6582 C 5.22461 5.48828 6.19141 5.41992 7.06055 4.46289 L 17.2754 -6.66016 C 17.7051 -6.36719 18.0957 -6.37695 18.5645 -6.47461 L 19.6094 -6.68945 L 20.3027 -5.99609 L 20.2539 -5.47852 C 20.1855 -4.95117 20.3516 -4.53125 20.8496 -4.0332 L 21.6602 -3.22266 C 22.168 -2.71484 22.8223 -2.68555 23.3008 -3.16406 L 26.5527 -6.41602 C 27.0312 -6.89453 27.0117 -7.54883 26.5039 -8.05664 L 25.6836 -8.87695 C 25.1855 -9.375 24.7754 -9.55078 24.2383 -9.47266 L 23.7109 -9.41406 L 23.0566 -10.0781 L 23.3398 -11.2207 C 23.4863 -11.7871 23.3398 -12.2559 22.7148 -12.8613 L 20.3027 -15.2539 C 16.7578 -18.7793 12.2266 -18.6719 9.11133 -15.5371 C 8.69141 -15.1074 8.64258 -14.5215 8.91602 -14.0918 C 9.15039 -13.7207 9.62891 -13.4961 10.2734 -13.6621 C 11.7871 -14.043 13.3008 -13.9258 14.7852 -12.9199 L 14.1602 -11.3379 C 13.9258 -10.752 13.9453 -10.2734 14.1797 -9.83398 L 3.01758 0.439453 C 2.08008 1.30859 1.97266 2.25586 2.83203 3.11523 Z M 10.6738 -15.1465 C 13.3398 -17.1387 16.6504 -16.8262 19.0527 -14.4141 L 21.6797 -11.8066 C 21.9141 -11.5723 21.9434 -11.3867 21.8848 -11.0938 L 21.5039 -9.53125 L 23.0762 -7.95898 L 24.043 -8.04688 C 24.3262 -8.07617 24.4141 -8.05664 24.6387 -7.83203 L 25.2637 -7.20703 L 22.5098 -4.46289 L 21.8848 -5.07812 C 21.6602 -5.30273 21.6406 -5.40039 21.6699 -5.68359 L 21.7578 -6.64062 L 20.1953 -8.20312 L 18.5742 -7.89062 C 18.291 -7.83203 18.1445 -7.83203 17.9102 -8.07617 L 15.7324 -10.2539 C 15.5078 -10.4883 15.4785 -10.625 15.6055 -10.9473 L 16.5527 -13.2227 C 14.9512 -14.7559 12.8418 -15.6055 10.8008 -14.9512 C 10.7129 -14.9219 10.6445 -14.9414 10.6152 -14.9805 C 10.5859 -15.0293 10.5859 -15.0781 10.6738 -15.1465 Z M 4.10156 2.41211 C 3.61328 1.91406 3.78906 1.61133 4.12109 1.30859 L 15.0781 -8.80859 L 16.3086 -7.57812 L 6.15234 3.34961 C 5.84961 3.68164 5.46875 3.7793 5.06836 3.37891 Z"/>
  </g>
  <text style="stroke:none;fill:black;font-family:-apple-system,&quot;SF Pro Display&quot;,&quot;SF Pro Text&quot;,Helvetica,sans-serif;font-weight:bold;" transform="matrix(1 0 0 1 1289 1953)">Exporting</text>
  <text style="stroke:none;fill:black;font-family:-apple-system,&quot;SF Pro Display&quot;,&quot;SF Pro Text&quot;,Helvetica,sans-serif;" transform="matrix(1 0 0 1 1289 1971)">Symbols should be outlined when exporting to ensure the</text>
  <text style="stroke:none;fill:black;font-family:-apple-system,&quot;SF Pro Display&quot;,&quot;SF Pro Text&quot;,Helvetica,sans-serif;" transform="matrix(1 0 0 1 1289 1989)">design is preserved when submitting to Xcode.</text>
  <text id="template-version" style="stroke:none;fill:black;font-family:-apple-system,&quot;SF Pro Display&quot;,&quot;SF Pro Text&quot;,Helvetica,sans-serif;text-anchor:end;" transform="matrix(1 0 0 1 3036 1933)">Template v.1.0</text>
  <text style="stroke:none;fill:black;font-family:-apple-system,&quot;SF Pro Display&quot;,&quot;SF Pro Text&quot;,Helvetica,sans-serif;text-anchor:end;" transform="matrix(1 0 0 1 3036 1951)">Generated from bag</text>
  <text style="stroke:none;fill:black;font-family:-apple-system,&quot;SF Pro Display&quot;,&quot;SF Pro Text&quot;,Helvetica,sans-serif;text-anchor:end;" transform="matrix(1 0 0 1 3036 1969)">Typeset at 100 points</text>
  <text style="stroke:none;fill:black;font-family:-apple-system,&quot;SF Pro Display&quot;,&quot;SF Pro Text&quot;,Helvetica,sans-serif;" transform="matrix(1 0 0 1 263 726)">Small</text>
  <text style="stroke:none;fill:black;font-family:-apple-system,&quot;SF Pro Display&quot;,&quot;SF Pro Text&quot;,Helvetica,sans-serif;" transform="matrix(1 0 0 1 263 1156)">Medium</text>
  <text style="stroke:none;fill:black;font-family:-apple-system,&quot;SF Pro Display&quot;,&quot;SF Pro Text&quot;,Helvetica,sans-serif;" transform="matrix(1 0 0 1 263 1586)">Large</text>
 </g>
 <g id="Guides">
  <g id="H-reference" style="fill:#27AAE1;stroke:none;" transform="matrix(1 0 0 1 339 696)">
   <path d="M 54.9316 0 L 57.666 0 L 30.5664 -70.459 L 28.0762 -70.459 L 0.976562 0 L 3.66211 0 L 12.9395 -24.4629 L 45.7031 -24.4629 Z M 29.1992 -67.0898 L 29.4434 -67.0898 L 44.8242 -26.709 L 13.8184 -26.709 Z"/>
  </g>
  <line id="Baseline-S" style="fill:none;stroke:#27AAE1;opacity:1;stroke-width:0.577;" x1="263" x2="3036" y1="696" y2="696"/>
  <line id="Capline-S" style="fill:none;stroke:#27AAE1;opacity:1;stroke-width:0.577;" x1="263" x2="3036" y1="625.541" y2="625.541"/>
  <g id="H-reference" style="fill:#27AAE1;stroke:none;" transform="matrix(1 0 0 1 339 1126)">
   <path d="M 54.9316 0 L 57.666 0 L 30.5664 -70.459 L 28.0762 -70.459 L 0.976562 0 L 3.66211 0 L 12.9395 -24.4629 L 45.7031 -24.4629 Z M 29.1992 -67.0898 L 29.4434 -67.0898 L 44.8242 -26.709 L 13.8184 -26.709 Z"/>
  </g>
  <line id="Baseline-M" style="fill:none;stroke:#27AAE1;opacity:1;stroke-width:0.577;" x1="263" x2="3036" y1="1126" y2="1126"/>
  <line id="Capline-M" style="fill:none;stroke:#27AAE1;opacity:1;stroke-width:0.577;" x1="263" x2="3036" y1="1055.54" y2="1055.54"/>
  <g id="H-reference" style="fill:#27AAE1;stroke:none;" transform="matrix(1 0 0 1 339 1556)">
   <path d="M 54.9316 0 L 57.666 0 L 30.5664 -70.459 L 28.0762 -70.459 L 0.976562 0 L 3.66211 0 L 12.9395 -24.4629 L 45.7031 -24.4629 Z M 29.1992 -67.0898 L 29.4434 -67.0898 L 44.8242 -26.709 L 13.8184 -26.709 Z"/>
  </g>
  <line id="Baseline-L" style="fill:none;stroke:#27AAE1;opacity:1;stroke-width:0.577;" x1="263" x2="3036" y1="1556" y2="1556"/>
  <line id="Capline-L" style="fill:none;stroke:#27AAE1;opacity:1;stroke-width:0.577;" x1="263" x2="3036" y1="1485.54" y2="1485.54"/>
  <rect height="119.336" id="left-margin" style="fill:#00AEEF;stroke:none;opacity:0.4;" width="12.4512" x="1394.06" y="1030.79"/>
  <rect height="119.336" id="right-margin" style="fill:#00AEEF;stroke:none;opacity:0.4;" width="12.4512" x="1493.18" y="1030.79"/>
 </g>
 <g id="Symbols">
  <g id="Black-L" transform="matrix(1 0 0 1 2856.76 1556)">
   <path d="M 39.9902 26.5137 L 113.965 26.5137 C 128.564 26.5137 137.207 17.8711 137.207 2.68555 L 137.207 -62.0605 C 137.207 -77.2461 128.564 -85.8887 113.33 -85.8887 L 108.105 -85.8887 C 107.91 -102.979 93.9453 -115.967 76.6602 -115.967 C 59.3262 -115.967 45.3613 -102.979 45.166 -85.8887 L 39.9902 -85.8887 C 24.7559 -85.8887 16.0645 -77.2461 16.0645 -62.0605 L 16.0645 2.68555 C 16.0645 17.8711 24.7559 26.5137 39.9902 26.5137 Z M 76.6602 -99.8047 C 84.2285 -99.8047 89.4531 -93.9453 89.5996 -85.8887 L 63.6719 -85.8887 C 63.6719 -93.7988 68.9453 -99.8047 76.6602 -99.8047 Z M 42.6758 6.29883 C 38.4766 6.29883 36.3281 4.39453 36.3281 -0.146484 L 36.3281 -59.2285 C 36.3281 -63.7695 38.4766 -65.625 42.6758 -65.625 L 110.596 -65.625 C 114.795 -65.625 116.992 -63.7695 116.992 -59.2285 L 116.992 -0.146484 C 116.992 4.39453 114.795 6.29883 111.23 6.29883 Z"/>
  </g>
  <g id="Heavy-L" transform="matrix(1 0 0 1 2561.32 1556)">
   <path d="M 38.8184 25.4883 L 112.793 25.4883 C 126.562 25.4883 134.668 17.4316 134.668 2.88086 L 134.668 -62.1094 C 134.668 -76.6602 126.562 -84.7656 111.914 -84.7656 L 105.42 -84.7656 C 105.225 -100.781 91.9434 -113.379 75.3906 -113.379 C 58.7891 -113.379 45.5566 -100.781 45.3613 -84.7656 L 38.8184 -84.7656 C 24.2188 -84.7656 16.0645 -76.6602 16.0645 -62.1094 L 16.0645 2.88086 C 16.0645 17.4316 24.2188 25.4883 38.8184 25.4883 Z M 75.3906 -99.0723 C 83.4961 -99.0723 89.0625 -92.8711 89.209 -84.7656 L 61.5234 -84.7656 C 61.6699 -92.8711 67.2852 -99.0723 75.3906 -99.0723 Z M 40.918 8.00781 C 36.084 8.00781 33.5938 5.71289 33.5938 0.585938 L 33.5938 -59.8145 C 33.5938 -64.9414 36.084 -67.2363 40.918 -67.2363 L 109.814 -67.2363 C 114.6 -67.2363 117.188 -64.9414 117.188 -59.8145 L 117.188 0.585938 C 117.188 5.71289 114.6 8.00781 110.645 8.00781 Z"/>
  </g>
  <g id="Bold-L" transform="matrix(1 0 0 1 2266 1556)">
   <path d="M 37.5 24.3652 L 111.475 24.3652 C 124.365 24.3652 131.885 16.8945 131.885 3.07617 L 131.885 -62.1582 C 131.885 -75.9766 124.316 -83.4961 110.4 -83.4961 L 102.393 -83.4961 C 102.148 -98.3887 89.7461 -110.449 73.9746 -110.449 C 58.2031 -110.449 45.752 -98.3887 45.5566 -83.4961 L 37.5 -83.4961 C 23.6328 -83.4961 16.0645 -76.0254 16.0645 -62.1582 L 16.0645 3.07617 C 16.0645 16.8945 23.6328 24.3652 37.5 24.3652 Z M 73.9746 -98.2422 C 82.6172 -98.2422 88.623 -91.6992 88.8184 -83.4961 L 59.1309 -83.4961 C 59.3262 -91.6992 65.332 -98.2422 73.9746 -98.2422 Z M 38.9648 9.91211 C 33.4473 9.91211 30.5176 7.17773 30.5176 1.41602 L 30.5176 -60.498 C 30.5176 -66.3086 33.4473 -69.043 38.9648 -69.043 L 108.984 -69.043 C 114.404 -69.043 117.432 -66.3086 117.432 -60.498 L 117.432 1.41602 C 117.432 7.17773 114.404 9.91211 110.01 9.91211 Z"/>
  </g>
  <g id="Semibold-L" transform="matrix(1 0 0 1 1970.27 1556)">
   <path d="M 36.6211 23.584 L 110.547 23.584 C 122.803 23.584 129.932 16.5039 129.932 3.17383 L 129.932 -62.207 C 129.932 -75.5371 122.803 -82.6172 109.326 -82.6172 L 100.293 -82.6172 C 100.049 -96.6797 88.2324 -108.447 72.998 -108.447 C 57.7637 -108.447 45.9473 -96.6797 45.7031 -82.6172 L 36.6211 -82.6172 C 23.1934 -82.6172 16.0645 -75.5859 16.0645 -62.207 L 16.0645 3.17383 C 16.0645 16.5527 23.1934 23.584 36.6211 23.584 Z M 72.998 -97.6562 C 82.0312 -97.6562 88.2812 -90.8691 88.5254 -82.6172 L 57.4707 -82.6172 C 57.666 -90.8691 63.9648 -97.6562 72.998 -97.6562 Z M 37.5977 11.2793 C 31.6406 11.2793 28.418 8.20312 28.418 1.95312 L 28.418 -60.9863 C 28.418 -67.2363 31.6406 -70.3125 37.5977 -70.3125 L 108.35 -70.3125 C 114.258 -70.3125 117.578 -67.2363 117.578 -60.9863 L 117.578 1.95312 C 117.578 8.20312 114.258 11.2793 109.57 11.2793 Z"/>
  </g>
  <g id="Medium-L" transform="matrix(1 0 0 1 1674.31 1556)">
   <path d="M 35.9375 22.998 L 109.863 22.998 C 121.68 22.998 128.418 16.2109 128.418 3.27148 L 128.418 -62.2559 C 128.418 -75.1953 121.631 -81.9824 108.545 -81.9824 L 98.7305 -81.9824 C 98.4375 -95.4102 87.0605 -106.885 72.2656 -106.885 C 57.4707 -106.885 46.0449 -95.4102 45.8008 -81.9824 L 35.9375 -81.9824 C 22.9004 -81.9824 16.0645 -75.2441 16.0645 -62.2559 L 16.0645 3.27148 C 16.0645 16.2598 22.9004 22.998 35.9375 22.998 Z M 72.2656 -97.2656 C 81.543 -97.2656 88.0859 -90.2344 88.2812 -81.9824 L 56.2012 -81.9824 C 56.4453 -90.2832 62.9395 -97.2656 72.2656 -97.2656 Z M 36.5723 12.2559 C 30.2246 12.2559 26.8066 8.98438 26.8066 2.39258 L 26.8066 -61.377 C 26.8066 -67.9199 30.2246 -71.2402 36.5723 -71.2402 L 107.91 -71.2402 C 114.16 -71.2402 117.725 -67.9199 117.725 -61.377 L 117.725 2.39258 C 117.725 8.98438 114.16 12.2559 109.277 12.2559 Z"/>
  </g>
  <g id="Regular-L" transform="matrix(1 0 0 1 1378.56 1556)">
   <path d="M 35.0586 22.2168 L 108.984 22.2168 C 120.166 22.2168 126.514 15.8691 126.514 3.41797 L 126.514 -62.3047 C 126.514 -74.707 120.117 -81.1035 107.52 -81.1035 L 96.6797 -81.1035 C 96.3867 -93.7988 85.5469 -104.883 71.2891 -104.883 C 57.0312 -104.883 46.1914 -93.7988 45.8984 -81.1035 L 35.0586 -81.1035 C 22.4609 -81.1035 16.0645 -74.8047 16.0645 -62.3047 L 16.0645 3.41797 C 16.0645 15.918 22.4609 22.2168 35.0586 22.2168 Z M 71.2891 -96.6797 C 80.957 -96.6797 87.7441 -89.4531 87.9883 -81.1035 L 54.5898 -81.1035 C 54.834 -89.4531 61.6211 -96.6797 71.2891 -96.6797 Z M 35.2539 13.5742 C 28.418 13.5742 24.707 9.96094 24.707 2.97852 L 24.707 -61.8164 C 24.707 -68.8477 28.418 -72.4609 35.2539 -72.4609 L 107.324 -72.4609 C 114.014 -72.4609 117.871 -68.8477 117.871 -61.8164 L 117.871 2.97852 C 117.871 9.96094 114.014 13.5742 108.838 13.5742 Z"/>
  </g>
  <g id="Light-L" transform="matrix(1 0 0 1 1082.77 1556)">
   <path d="M 34.0332 21.4355 L 107.617 21.4355 C 118.555 21.4355 124.658 15.2344 124.658 3.56445 L 124.658 -62.793 C 124.658 -74.4629 118.555 -80.6152 106.689 -80.6152 L 94.7754 -80.6152 C 94.5312 -92.5293 84.6191 -103.467 70.3613 -103.467 C 56.1035 -103.467 46.1914 -92.5293 45.9961 -80.6152 L 34.0332 -80.6152 C 22.168 -80.6152 16.0645 -74.5605 16.0645 -62.793 L 16.0645 3.56445 C 16.0645 15.3809 22.168 21.4355 34.0332 21.4355 Z M 70.3613 -97.1191 C 81.1035 -97.1191 87.9395 -89.1602 88.1348 -80.6152 L 52.5879 -80.6152 C 52.7832 -89.1602 59.668 -97.1191 70.3613 -97.1191 Z M 34.1797 14.7949 C 26.709 14.7949 22.7051 10.8398 22.7051 3.22266 L 22.7051 -62.4512 C 22.7051 -70.0684 26.709 -74.0234 34.1797 -74.0234 L 106.543 -74.0234 C 113.818 -74.0234 118.066 -70.0684 118.066 -62.4512 L 118.066 3.22266 C 118.066 10.8398 113.818 14.7949 107.471 14.7949 Z"/>
  </g>
  <g id="Thin-L" transform="matrix(1 0 0 1 787.282 1556)">
   <path d="M 32.666 20.3613 L 105.811 20.3613 C 116.504 20.3613 122.217 14.4531 122.217 3.75977 L 122.217 -63.4277 C 122.217 -74.1211 116.504 -79.9805 105.615 -79.9805 L 92.2363 -79.9805 C 92.0898 -90.8691 83.3984 -101.562 69.1406 -101.562 C 54.8828 -101.562 46.1914 -90.8691 46.0449 -79.9805 L 32.666 -79.9805 C 21.7773 -79.9805 16.0645 -74.2676 16.0645 -63.4277 L 16.0645 3.75977 C 16.0645 14.6484 21.7773 20.3613 32.666 20.3613 Z M 69.1406 -97.7051 C 81.2988 -97.7051 88.1836 -88.7207 88.3301 -79.9805 L 49.9512 -79.9805 C 50.0977 -88.7207 57.0312 -97.7051 69.1406 -97.7051 Z M 32.8125 16.4062 C 24.4141 16.4062 19.9707 12.0117 19.9707 3.56445 L 19.9707 -63.2324 C 19.9707 -71.6797 24.4141 -76.0742 32.8125 -76.0742 L 105.469 -76.0742 C 113.574 -76.0742 118.311 -71.6797 118.311 -63.2324 L 118.311 3.56445 C 118.311 12.0117 113.574 16.4062 105.664 16.4062 Z"/>
  </g>
  <g id="Ultralight-L" transform="matrix(1 0 0 1 491.205 1556)">
   <path d="M 31.9824 19.7754 L 104.883 19.7754 C 115.43 19.7754 120.947 14.0625 120.947 3.85742 L 120.947 -63.7207 C 120.947 -73.9258 115.43 -79.6875 105.078 -79.6875 L 90.9668 -79.6875 C 90.9668 -89.8926 82.9102 -100.586 68.5059 -100.586 C 54.248 -100.586 46.1914 -90.0391 46.0938 -79.6875 L 31.9824 -79.6875 C 21.582 -79.6875 16.0645 -74.1211 16.0645 -63.7207 L 16.0645 3.85742 C 16.0645 14.2578 21.582 19.7754 31.9824 19.7754 Z M 68.5059 -97.998 C 81.3965 -97.998 88.2812 -88.4766 88.3789 -79.6875 L 48.6328 -79.6875 C 48.6328 -88.3301 55.5664 -97.998 68.5059 -97.998 Z M 32.1289 17.2363 C 23.1934 17.2363 18.6035 12.6465 18.6035 3.75977 L 18.6035 -63.623 C 18.6035 -72.5098 23.1934 -77.0996 32.1289 -77.0996 L 104.883 -77.0996 C 113.477 -77.0996 118.408 -72.5098 118.408 -63.623 L 118.408 3.75977 C 118.408 12.6465 113.477 17.2363 104.736 17.2363 Z"/>
  </g>
  <g id="Black-M" transform="matrix(1 0 0 1 2872.8 1126)">
   <path d="M 31.9824 13.5742 L 89.1602 13.5742 C 101.465 13.5742 108.74 6.29883 108.74 -5.95703 L 108.74 -56.2012 C 108.74 -68.457 101.465 -75.7324 89.209 -75.7324 L 86.377 -75.7324 C 86.377 -89.9414 75 -100.537 60.5957 -100.537 C 46.2402 -100.537 34.8633 -89.9902 34.8145 -75.7324 L 31.9824 -75.7324 C 19.7266 -75.7324 12.4512 -68.457 12.4512 -56.2012 L 12.4512 -5.95703 C 12.4512 6.29883 19.7266 13.5742 31.9824 13.5742 Z M 60.5957 -86.4746 C 66.4062 -86.4746 69.9707 -81.9824 70.0195 -75.7324 L 51.1719 -75.7324 C 51.1719 -81.9336 54.7363 -86.4746 60.5957 -86.4746 Z M 34.9121 -4.73633 C 32.0801 -4.73633 30.7617 -5.81055 30.7617 -8.88672 L 30.7617 -53.2715 C 30.7617 -56.3477 32.0801 -57.4707 34.9121 -57.4707 L 86.2793 -57.4707 C 89.1113 -57.4707 90.4785 -56.3477 90.4785 -53.2715 L 90.4785 -8.88672 C 90.4785 -5.81055 89.1113 -4.73633 86.2305 -4.73633 Z"/>
  </g>
  <g id="Heavy-M" transform="matrix(1 0 0 1 2577.22 1126)">
   <path d="M 31.0059 12.6465 L 88.2324 12.6465 C 99.707 12.6465 106.494 5.9082 106.494 -5.81055 L 106.494 -56.1523 C 106.494 -67.8711 99.707 -74.6582 87.9395 -74.6582 L 83.9355 -74.6582 C 83.9355 -87.8418 73.0957 -98.0957 59.4727 -98.0957 C 45.8984 -98.0957 35.1074 -87.9395 34.9609 -74.6582 L 31.0059 -74.6582 C 19.2383 -74.6582 12.4512 -67.8711 12.4512 -56.1523 L 12.4512 -5.81055 C 12.4512 5.9082 19.2383 12.6465 31.0059 12.6465 Z M 59.4727 -85.5469 C 65.5273 -85.5469 69.4824 -80.9082 69.5801 -74.6582 L 49.3652 -74.6582 C 49.3652 -80.8105 53.3203 -85.5469 59.4727 -85.5469 Z M 33.252 -3.17383 C 29.9316 -3.17383 28.2715 -4.63867 28.2715 -8.1543 L 28.2715 -53.8086 C 28.2715 -57.373 29.9316 -58.8379 33.252 -58.8379 L 85.6934 -58.8379 C 88.9648 -58.8379 90.625 -57.373 90.625 -53.8086 L 90.625 -8.1543 C 90.625 -4.63867 88.9648 -3.17383 85.9863 -3.17383 Z"/>
  </g>
  <g id="Bold-M" transform="matrix(1 0 0 1 2281.8 1126)">
   <path d="M 29.8828 11.6699 L 87.207 11.6699 C 97.7539 11.6699 103.906 5.46875 103.906 -5.66406 L 103.906 -56.0547 C 103.906 -67.2363 97.7051 -73.3887 86.5234 -73.3887 L 81.2012 -73.3887 C 81.0547 -85.6445 70.8984 -95.3125 58.2031 -95.3125 C 45.459 -95.3125 35.3516 -85.6445 35.2051 -73.3887 L 29.8828 -73.3887 C 18.6523 -73.3887 12.4512 -67.2363 12.4512 -56.0547 L 12.4512 -5.66406 C 12.4512 5.51758 18.6523 11.6699 29.8828 11.6699 Z M 58.2031 -84.5703 C 64.5508 -84.5703 68.9453 -79.6875 69.0918 -73.3887 L 47.3145 -73.3887 C 47.3145 -79.541 51.7578 -84.5703 58.2031 -84.5703 Z M 31.3965 -1.41602 C 27.5391 -1.41602 25.5371 -3.27148 25.5371 -7.32422 L 25.5371 -54.3945 C 25.5371 -58.4961 27.5391 -60.3516 31.3965 -60.3516 L 84.9609 -60.3516 C 88.8184 -60.3516 90.8691 -58.4961 90.8691 -54.3945 L 90.8691 -7.32422 C 90.8691 -3.27148 88.8184 -1.41602 85.6934 -1.41602 Z"/>
  </g>
  <g id="Semibold-M" transform="matrix(1 0 0 1 1985.97 1126)">
   <path d="M 29.1016 10.9863 L 86.4746 10.9863 C 96.3867 10.9863 102.148 5.17578 102.148 -5.56641 L 102.148 -56.0059 C 102.148 -66.7969 96.3379 -72.5586 85.498 -72.5586 L 79.2969 -72.5586 C 79.1016 -84.082 69.4336 -93.4082 57.3242 -93.4082 C 45.2148 -93.4082 35.498 -84.082 35.3027 -72.5586 L 29.1016 -72.5586 C 18.2617 -72.5586 12.4512 -66.7969 12.4512 -56.0059 L 12.4512 -5.56641 C 12.4512 5.22461 18.2617 10.9863 29.1016 10.9863 Z M 57.3242 -83.8379 C 63.8672 -83.8379 68.5547 -78.8574 68.75 -72.5586 L 45.8984 -72.5586 C 46.0449 -78.8574 50.7812 -83.8379 57.3242 -83.8379 Z M 30.127 -0.195312 C 25.8789 -0.195312 23.6328 -2.34375 23.6328 -6.78711 L 23.6328 -54.7852 C 23.6328 -59.2285 25.8789 -61.377 30.127 -61.377 L 84.4727 -61.377 C 88.6719 -61.377 91.0156 -59.2285 91.0156 -54.7852 L 91.0156 -6.78711 C 91.0156 -2.34375 88.6719 -0.195312 85.498 -0.195312 Z"/>
  </g>
  <g id="Medium-M" transform="matrix(1 0 0 1 1689.91 1126)">
   <path d="M 28.5156 10.4492 L 85.9375 10.4492 C 95.3613 10.4492 100.83 4.98047 100.83 -5.46875 L 100.83 -56.0059 C 100.83 -66.4551 95.3125 -71.9238 84.7656 -71.9238 L 77.8809 -71.9238 C 77.6367 -82.8613 68.3105 -91.9434 56.6406 -91.9434 C 45.0195 -91.9434 35.6445 -82.8613 35.4004 -71.9238 L 28.5156 -71.9238 C 17.9688 -71.9238 12.4512 -66.4551 12.4512 -56.0059 L 12.4512 -5.46875 C 12.4512 4.98047 17.9688 10.4492 28.5156 10.4492 Z M 56.6406 -83.3008 C 63.3301 -83.3008 68.2617 -78.2715 68.457 -71.9238 L 44.8242 -71.9238 C 45.0195 -78.2715 49.9512 -83.3008 56.6406 -83.3008 Z M 29.1504 0.732422 C 24.6582 0.732422 22.168 -1.61133 22.168 -6.34766 L 22.168 -55.127 C 22.168 -59.8145 24.6582 -62.1582 29.1504 -62.1582 L 84.1309 -62.1582 C 88.5742 -62.1582 91.1133 -59.8145 91.1133 -55.127 L 91.1133 -6.34766 C 91.1133 -1.61133 88.5742 0.732422 85.3027 0.732422 Z"/>
  </g>
  <g id="Regular-M" transform="matrix(1 0 0 1 1394.06 1126)">
   <path d="M 27.7832 9.76562 L 85.2539 9.76562 C 93.9941 9.76562 99.1211 4.6875 99.1211 -5.37109 L 99.1211 -55.9082 C 99.1211 -65.9668 93.9453 -71.0449 83.7891 -71.0449 L 75.9766 -71.0449 C 75.7324 -81.2988 66.7969 -90.0391 55.7617 -90.0391 C 44.7266 -90.0391 35.791 -81.2988 35.5469 -71.0449 L 27.7832 -71.0449 C 17.5781 -71.0449 12.4512 -66.0156 12.4512 -55.9082 L 12.4512 -5.37109 C 12.4512 4.73633 17.5781 9.76562 27.7832 9.76562 Z M 55.7617 -82.6172 C 62.6465 -82.6172 67.8711 -77.4414 68.1152 -71.0449 L 43.4082 -71.0449 C 43.6523 -77.4414 48.877 -82.6172 55.7617 -82.6172 Z M 27.8809 1.9043 C 22.998 1.9043 20.3125 -0.683594 20.3125 -5.76172 L 20.3125 -55.5176 C 20.3125 -60.5957 22.998 -63.1836 27.8809 -63.1836 L 83.6426 -63.1836 C 88.4766 -63.1836 91.2598 -60.5957 91.2598 -55.5176 L 91.2598 -5.76172 C 91.2598 -0.683594 88.4766 1.9043 85.1074 1.9043 Z"/>
  </g>
  <g id="Light-M" transform="matrix(1 0 0 1 1098.18 1126)">
   <path d="M 26.8555 9.0332 L 84.0332 9.0332 C 92.5781 9.0332 97.4609 4.15039 97.4609 -5.22461 L 97.4609 -56.3477 C 97.4609 -65.7715 92.5781 -70.6055 83.0566 -70.6055 L 74.2676 -70.6055 C 74.0723 -80.2246 66.0156 -88.7695 54.9316 -88.7695 C 43.8965 -88.7695 35.791 -80.2246 35.5957 -70.6055 L 26.8555 -70.6055 C 17.334 -70.6055 12.4512 -65.8203 12.4512 -56.3477 L 12.4512 -5.22461 C 12.4512 4.19922 17.334 9.0332 26.8555 9.0332 Z M 54.9316 -83.0078 C 62.793 -83.0078 68.0664 -77.1484 68.2617 -70.6055 L 41.6504 -70.6055 C 41.8457 -77.1484 47.1191 -83.0078 54.9316 -83.0078 Z M 26.9531 2.97852 C 21.4844 2.97852 18.5059 0.0976562 18.5059 -5.56641 L 18.5059 -56.0547 C 18.5059 -61.6699 21.4844 -64.5996 26.9531 -64.5996 L 82.9102 -64.5996 C 88.3301 -64.5996 91.4062 -61.6699 91.4062 -56.0547 L 91.4062 -5.56641 C 91.4062 0.0976562 88.3301 2.97852 83.8867 2.97852 Z"/>
  </g>
  <g id="Thin-M" transform="matrix(1 0 0 1 802.565 1126)">
   <path d="M 25.6348 8.05664 L 82.373 8.05664 C 90.7227 8.05664 95.2637 3.4668 95.2637 -5.0293 L 95.2637 -56.9336 C 95.2637 -65.4297 90.7227 -70.0684 82.0801 -70.0684 L 72.0215 -70.0684 C 72.0215 -78.5645 65.0391 -87.0605 53.8574 -87.0605 C 42.7734 -87.0605 35.791 -78.7109 35.6934 -70.0684 L 25.6348 -70.0684 C 16.9922 -70.0684 12.4512 -65.5273 12.4512 -56.9336 L 12.4512 -5.0293 C 12.4512 3.56445 16.9922 8.05664 25.6348 8.05664 Z M 53.8574 -83.4961 C 62.9395 -83.4961 68.2617 -76.7578 68.4082 -70.0684 L 39.3066 -70.0684 C 39.4043 -76.7578 44.7754 -83.4961 53.8574 -83.4961 Z M 25.7324 4.44336 C 19.3848 4.44336 16.0645 1.12305 16.0645 -5.22461 L 16.0645 -56.7383 C 16.0645 -63.1348 19.3848 -66.4062 25.7324 -66.4062 L 81.9824 -66.4062 C 88.0859 -66.4062 91.6016 -63.1348 91.6016 -56.7383 L 91.6016 -5.22461 C 91.6016 1.12305 88.0859 4.44336 82.2754 4.44336 Z"/>
  </g>
  <g id="Ultralight-M" transform="matrix(1 0 0 1 506.415 1126)">
   <path d="M 25 7.56836 L 81.543 7.56836 C 89.7949 7.56836 94.1406 3.125 94.1406 -4.98047 L 94.1406 -57.2266 C 94.1406 -65.2832 89.7949 -69.7754 81.5918 -69.7754 L 70.8984 -69.7754 C 70.8984 -77.832 64.4531 -86.1816 53.2715 -86.1816 C 42.2363 -86.1816 35.791 -77.9785 35.6934 -69.7754 L 25 -69.7754 C 16.7969 -69.7754 12.4512 -65.4297 12.4512 -57.2266 L 12.4512 -4.98047 C 12.4512 3.22266 16.7969 7.56836 25 7.56836 Z M 53.2715 -83.7891 C 63.0371 -83.7891 68.3594 -76.6113 68.5059 -69.7754 L 38.0859 -69.7754 C 38.0859 -76.4648 43.457 -83.7891 53.2715 -83.7891 Z M 25.0977 5.17578 C 18.3594 5.17578 14.8438 1.66016 14.8438 -5.07812 L 14.8438 -57.0801 C 14.8438 -63.8672 18.3594 -67.3828 25.0977 -67.3828 L 81.4453 -67.3828 C 87.9883 -67.3828 91.748 -63.8672 91.748 -57.0801 L 91.748 -5.07812 C 91.748 1.66016 87.9883 5.17578 81.4453 5.17578 Z"/>
  </g>
  <g id="Black-S" transform="matrix(1 0 0 1 2885.99 696)">
   <path d="M 25 2.92969 L 69.8242 2.92969 C 79.3945 2.92969 85.0586 -2.73438 85.0586 -12.3047 L 85.0586 -51.6602 C 85.0586 -61.2305 79.3945 -66.8945 69.8242 -66.8945 L 67.5293 -66.8945 C 67.5293 -77.9297 58.6426 -86.2305 47.4121 -86.2305 C 36.2305 -86.2305 27.3438 -77.9785 27.2949 -66.8945 L 25 -66.8945 C 15.4297 -66.8945 9.76562 -61.2305 9.76562 -51.6602 L 9.76562 -12.3047 C 9.76562 -2.73438 15.4297 2.92969 25 2.92969 Z M 47.4121 -75.293 C 51.9531 -75.293 54.7852 -71.8262 54.834 -66.8945 L 39.9902 -66.8945 C 39.9902 -71.7285 42.8223 -75.293 47.4121 -75.293 Z M 27.2461 -11.2305 C 25 -11.2305 23.9258 -12.1094 23.9258 -14.5508 L 23.9258 -49.4141 C 23.9258 -51.8555 25 -52.7344 27.2461 -52.7344 L 67.5781 -52.7344 C 69.8242 -52.7344 70.8984 -51.8555 70.8984 -49.4141 L 70.8984 -14.5508 C 70.8984 -12.1094 69.8242 -11.2305 67.5781 -11.2305 Z"/>
  </g>
  <g id="Heavy-S" transform="matrix(1 0 0 1 2590.06 696)">
   <path d="M 24.3652 2.34375 L 69.2383 2.34375 C 78.2227 2.34375 83.4961 -2.97852 83.4961 -12.207 L 83.4961 -51.5625 C 83.4961 -60.791 78.1738 -66.1133 68.9453 -66.1133 L 65.8203 -66.1133 C 65.8203 -76.4648 57.2754 -84.4727 46.6309 -84.4727 C 36.0352 -84.4727 27.5391 -76.5625 27.4414 -66.1133 L 24.3652 -66.1133 C 15.0879 -66.1133 9.76562 -60.791 9.76562 -51.5625 L 9.76562 -12.207 C 9.76562 -2.97852 15.0879 2.34375 24.3652 2.34375 Z M 46.6309 -74.5605 C 51.2695 -74.5605 54.3945 -70.9961 54.4922 -66.1133 L 38.7695 -66.1133 C 38.7695 -70.8984 41.9434 -74.5605 46.6309 -74.5605 Z M 26.0742 -10.1562 C 23.5352 -10.1562 22.2656 -11.2793 22.2656 -14.0137 L 22.2656 -49.7559 C 22.2656 -52.4902 23.5352 -53.6133 26.0742 -53.6133 L 67.1875 -53.6133 C 69.7266 -53.6133 70.9961 -52.4902 70.9961 -49.7559 L 70.9961 -14.0137 C 70.9961 -11.2793 69.7266 -10.1562 67.5293 -10.1562 Z"/>
  </g>
  <g id="Bold-S" transform="matrix(1 0 0 1 2294.23 696)">
   <path d="M 23.6328 1.66016 L 68.6035 1.66016 C 76.8555 1.66016 81.7383 -3.22266 81.7383 -12.1094 L 81.7383 -51.4648 C 81.7383 -60.3516 76.8555 -65.1855 67.9199 -65.1855 L 63.9648 -65.1855 C 63.9648 -74.8047 55.7617 -82.5195 45.752 -82.5195 C 35.8398 -82.5195 27.7344 -74.9512 27.5879 -65.1855 L 23.6328 -65.1855 C 14.6973 -65.1855 9.76562 -60.3516 9.76562 -51.4648 L 9.76562 -12.1094 C 9.76562 -3.22266 14.6973 1.66016 23.6328 1.66016 Z M 45.752 -73.7305 C 50.4883 -73.7305 53.9551 -70.1172 54.1016 -65.1855 L 37.4512 -65.1855 C 37.4512 -69.9707 40.918 -73.7305 45.752 -73.7305 Z M 24.8047 -8.93555 C 21.9238 -8.93555 20.3613 -10.3516 20.3613 -13.4277 L 20.3613 -50.1465 C 20.3613 -53.2227 21.9238 -54.5898 24.8047 -54.5898 L 66.748 -54.5898 C 69.6289 -54.5898 71.1426 -53.2227 71.1426 -50.1465 L 71.1426 -13.4277 C 71.1426 -10.3516 69.6289 -8.93555 67.4316 -8.93555 Z"/>
  </g>
  <g id="Semibold-S" transform="matrix(1 0 0 1 1998.1 696)">
   <path d="M 23.0957 1.17188 L 68.1641 1.17188 C 75.9277 1.17188 80.5664 -3.36914 80.5664 -12.0117 L 80.5664 -51.3672 C 80.5664 -60.0098 75.9277 -64.5996 67.2363 -64.5996 L 62.6465 -64.5996 C 62.5 -73.8281 54.6387 -81.1523 45.166 -81.1523 C 35.6934 -81.1523 27.832 -73.8281 27.6855 -64.5996 L 23.0957 -64.5996 C 14.4043 -64.5996 9.76562 -60.0098 9.76562 -51.3672 L 9.76562 -12.0117 C 9.76562 -3.36914 14.4043 1.17188 23.0957 1.17188 Z M 45.166 -73.1445 C 50 -73.1445 53.6621 -69.4824 53.8086 -64.5996 L 36.5234 -64.5996 C 36.6699 -69.4824 40.332 -73.1445 45.166 -73.1445 Z M 23.877 -8.10547 C 20.752 -8.10547 19.0918 -9.7168 19.0918 -12.9883 L 19.0918 -50.3906 C 19.0918 -53.7109 20.752 -55.2734 23.877 -55.2734 L 66.4551 -55.2734 C 69.5312 -55.2734 71.2402 -53.7109 71.2402 -50.3906 L 71.2402 -12.9883 C 71.2402 -9.7168 69.5312 -8.10547 67.3828 -8.10547 Z"/>
  </g>
  <g id="Medium-S" transform="matrix(1 0 0 1 1701.85 696)">
   <path d="M 22.7051 0.830078 L 67.8223 0.830078 C 75.2441 0.830078 79.6387 -3.51562 79.6387 -11.9629 L 79.6387 -51.3184 C 79.6387 -59.7656 75.1953 -64.1113 66.6992 -64.1113 L 61.6699 -64.1113 C 61.4746 -72.998 53.8086 -80.127 44.7266 -80.127 C 35.5957 -80.127 27.9297 -72.998 27.7344 -64.1113 L 22.7051 -64.1113 C 14.209 -64.1113 9.76562 -59.7656 9.76562 -51.3184 L 9.76562 -11.9629 C 9.76562 -3.51562 14.209 0.830078 22.7051 0.830078 Z M 44.7266 -72.7539 C 49.5605 -72.7539 53.418 -69.043 53.6133 -64.1113 L 35.791 -64.1113 C 35.9863 -69.043 39.8438 -72.7539 44.7266 -72.7539 Z M 23.1934 -7.4707 C 19.9219 -7.4707 18.0664 -9.22852 18.0664 -12.6953 L 18.0664 -50.5859 C 18.0664 -54.0527 19.9219 -55.8105 23.1934 -55.8105 L 66.2109 -55.8105 C 69.4824 -55.8105 71.3379 -54.0527 71.3379 -50.5859 L 71.3379 -12.6953 C 71.3379 -9.22852 69.4824 -7.4707 67.334 -7.4707 Z"/>
  </g>
  <g id="Regular-S" transform="matrix(1 0 0 1 1405.73 696)">
   <path d="M 22.2168 0.390625 L 67.3828 0.390625 C 74.3652 0.390625 78.4668 -3.71094 78.4668 -11.9141 L 78.4668 -51.2207 C 78.4668 -59.4238 74.3164 -63.5254 66.0156 -63.5254 L 60.3516 -63.5254 C 60.1562 -71.875 52.7344 -78.8086 44.0918 -78.8086 C 35.4492 -78.8086 28.0762 -71.875 27.832 -63.5254 L 22.2168 -63.5254 C 13.916 -63.5254 9.76562 -59.4238 9.76562 -51.2207 L 9.76562 -11.9141 C 9.76562 -3.71094 13.916 0.390625 22.2168 0.390625 Z M 44.0918 -72.168 C 49.0723 -72.168 53.125 -68.4082 53.3203 -63.5254 L 34.9121 -63.5254 C 35.1074 -68.4082 39.1602 -72.168 44.0918 -72.168 Z M 22.3145 -6.68945 C 18.7988 -6.68945 16.7969 -8.54492 16.7969 -12.2559 L 16.7969 -50.8789 C 16.7969 -54.541 18.7988 -56.4453 22.3145 -56.4453 L 65.918 -56.4453 C 69.3848 -56.4453 71.4355 -54.541 71.4355 -50.8789 L 71.4355 -12.2559 C 71.4355 -8.54492 69.3848 -6.68945 67.2852 -6.68945 Z"/>
  </g>
  <g id="Light-S" transform="matrix(1 0 0 1 1109.75 696)">
   <path d="M 21.3867 -0.292969 L 66.3086 -0.292969 C 73.0957 -0.292969 77.002 -4.15039 77.002 -11.7676 L 77.002 -51.6113 C 77.002 -59.2285 73.0469 -63.1348 65.332 -63.1348 L 58.8867 -63.1348 C 58.6914 -70.8984 52.0508 -77.6367 43.3594 -77.6367 C 34.7168 -77.6367 28.0762 -70.8984 27.8809 -63.1348 L 21.3867 -63.1348 C 13.6719 -63.1348 9.76562 -59.2773 9.76562 -51.6113 L 9.76562 -11.7676 C 9.76562 -4.15039 13.6719 -0.292969 21.3867 -0.292969 Z M 43.3594 -72.5098 C 49.1699 -72.5098 53.2715 -68.1641 53.418 -63.1348 L 33.3008 -63.1348 C 33.4961 -68.1641 37.5977 -72.5098 43.3594 -72.5098 Z M 21.4844 -5.71289 C 17.4316 -5.71289 15.1855 -7.86133 15.1855 -12.0605 L 15.1855 -51.3184 C 15.1855 -55.5176 17.4316 -57.7148 21.4844 -57.7148 L 65.2344 -57.7148 C 69.2383 -57.7148 71.582 -55.5176 71.582 -51.3184 L 71.582 -12.0605 C 71.582 -7.86133 69.2383 -5.71289 66.2109 -5.71289 Z"/>
  </g>
  <g id="Thin-S" transform="matrix(1 0 0 1 814.015 696)">
   <path d="M 20.3125 -1.12305 L 64.8926 -1.12305 C 71.4355 -1.12305 75.0488 -4.78516 75.0488 -11.6211 L 75.0488 -52.0996 C 75.0488 -58.9844 71.4355 -62.6465 64.502 -62.6465 L 56.8848 -62.6465 C 56.8848 -69.4336 51.1719 -76.1719 42.4316 -76.1719 C 33.7402 -76.1719 28.0762 -69.5801 27.9297 -62.6465 L 20.3125 -62.6465 C 13.3789 -62.6465 9.76562 -59.0332 9.76562 -52.0996 L 9.76562 -11.6211 C 9.76562 -4.6875 13.3789 -1.12305 20.3125 -1.12305 Z M 42.4316 -72.9492 C 49.2676 -72.9492 53.4668 -67.8711 53.5645 -62.6465 L 31.25 -62.6465 C 31.25 -67.7246 35.4492 -72.9492 42.4316 -72.9492 Z M 20.4102 -4.44336 C 15.625 -4.44336 13.0859 -6.93359 13.0859 -11.8164 L 13.0859 -51.9531 C 13.0859 -56.7871 15.625 -59.3262 20.4102 -59.3262 L 64.4043 -59.3262 C 69.0918 -59.3262 71.7285 -56.7871 71.7285 -51.9531 L 71.7285 -11.8164 C 71.7285 -6.93359 69.0918 -4.44336 64.7949 -4.44336 Z"/>
  </g>
  <g id="Ultralight-S" transform="matrix(1 0 0 1 517.792 696)">
   <path d="M 19.7754 -1.5625 L 64.1113 -1.5625 C 70.6055 -1.5625 74.0723 -5.12695 74.0723 -11.5234 L 74.0723 -52.3926 C 74.0723 -58.8379 70.6055 -62.3535 64.0625 -62.3535 L 55.8594 -62.3535 C 55.8594 -68.7988 50.6348 -75.3906 41.8945 -75.3906 C 33.252 -75.3906 28.0762 -68.8965 27.9785 -62.3535 L 19.7754 -62.3535 C 13.2324 -62.3535 9.76562 -58.9355 9.76562 -52.3926 L 9.76562 -11.5234 C 9.76562 -5.0293 13.2324 -1.5625 19.7754 -1.5625 Z M 41.8945 -73.1934 C 49.3652 -73.1934 53.5645 -67.6758 53.6621 -62.3535 L 30.1758 -62.3535 C 30.1758 -67.5781 34.375 -73.1934 41.8945 -73.1934 Z M 19.873 -3.75977 C 14.6484 -3.75977 11.9629 -6.44531 11.9629 -11.6699 L 11.9629 -52.2949 C 11.9629 -57.4707 14.6484 -60.1562 19.873 -60.1562 L 63.9648 -60.1562 C 68.9453 -60.1562 71.875 -57.4707 71.875 -52.2949 L 71.875 -11.6699 C 71.875 -6.44531 68.9453 -3.75977 64.0137 -3.75977 Z"/>
  </g>
 </g>
</svg>
